<svg xmlns="http://www.w3.org/2000/svg" viewBox="0 0 340 620" fill="none">
  <g stroke="#267080" stroke-linecap="round" stroke-linejoin="round">
    <path stroke-width="4" d="M35 245c61-77 153-95 233-38 24 17 42 40 54 67-34 42-87 66-147 62-62-4-111-39-140-91Z"/>
    <path stroke-width="4" d="m272 209 55-41-7 81M69 229 20 187l14 78M140 192c17-39 49-66 88-76M145 337c18 41 50 67 91 76"/>
    <path stroke-width="3" d="M96 250c31 16 53 41 63 75M111 207c27 7 54 5 79-5"/>
    <circle cx="233" cy="238" r="7" stroke-width="3"/>
    <path stroke-width="3" d="M39 521c15-69 13-124-5-165M85 521c-2-61 11-111 40-151M145 521c10-53 7-97-10-132M224 521c-6-63 8-112 42-148M285 521c14-57 11-104-10-141"/>
    <path stroke-width="3" d="M34 422c-22-4-38-17-47-39M83 440c24-7 43-2 58 14M220 427c-24-3-41-15-52-35M283 457c20-11 40-10 59 3"/>
    <circle cx="282" cy="112" r="11" stroke-width="3"/>
    <circle cx="304" cy="79" r="6" stroke-width="3"/>
    <circle cx="57" cy="132" r="8" stroke-width="3"/>
  </g>
</svg>
