<svg xmlns="http://www.w3.org/2000/svg" viewBox="0 0 320 720" fill="none">
  <g stroke="#315849" stroke-linecap="round" stroke-linejoin="round">
    <path stroke-width="4" d="M123 642c-10-69-8-144 1-218l14-118c4-35 0-68-18-91-19-25-58-22-68 7-11 33 19 65 54 52 43-16 49-85 77-118 19-22 47-19 57 7 9 23-7 47-29 58-25 12-32 45-27 90 8 78 6 198-7 331M91 642c-8-57-8-111-4-166M180 642c7-56 8-112 3-168M109 311c-28 10-52 4-68-11M187 292c24 10 45 7 60-6"/>
    <path stroke-width="4" d="M187 144c5-28 20-50 43-65M227 79c19 5 32 18 37 37M193 130c-22-13-36-32-39-55M213 185c17 5 30 3 41-6"/>
    <g stroke-width="3">
      <path d="M76 397c14-12 31-12 45 0M137 357c13-10 29-10 42 0M102 481c12-10 27-10 39 0M151 433c11-9 25-9 36 0"/>
      <path d="M36 646c11-73 3-133-24-181M29 549c-23-1-38-13-46-34M38 581c23-8 42-3 56 16M253 646c-3-70 14-129 51-176M276 539c24 2 41-8 52-28M266 580c-22-10-42-7-58 8"/>
      <ellipse cx="204" cy="176" rx="5" ry="4"/>
    </g>
  </g>
</svg>
